<svg xmlns="http://www.w3.org/2000/svg" xmlns:xlink="http://www.w3.org/1999/xlink" version="1.1" width="1160" height="456"><g id="ICA Context Diagram"><g id="Clarifies dataset description"><polyline points="576,192 576,296" fill="none" stroke-width="1" stroke="#adb3b3" opacity="1"></polyline></g><g id="Clarifies dataset description"><rect width="112.261" height="36.8" x="519.8695" y="225.6" rx="4" ry="4" fill-opacity="0.8" fill="#e5e7e8" stroke-opacity="1" stroke-width="1" stroke="#cfd2d2" opacity="0.8"></rect><g opacity="1" fill="#434647"><text font-family="Lato, Arial, sans-serif" font-size="14" text-anchor="middle" x="576" y="241.41800000000003"><tspan dy="0" x="576">Clarifies dataset</tspan></text><text font-family="Lato, Arial, sans-serif" font-size="14" text-anchor="middle" x="576" y="257.418"><tspan dy="0" x="576">description</tspan></text></g></g><g id="Sends prompt of numeric partition to"><polyline points="704,360 872,360" fill="none" stroke-width="1" stroke="#adb3b3" opacity="1"></polyline></g><g id="Sends prompt of numeric partition to"><rect width="136.81" height="36.8" x="719.595" y="341.6" rx="4" ry="4" fill-opacity="0.8" fill="#e5e7e8" stroke-opacity="1" stroke-width="1" stroke="#cfd2d2" opacity="0.8"></rect><g opacity="1" fill="#434647"><text font-family="Lato, Arial, sans-serif" font-size="14" text-anchor="middle" x="788" y="357.418"><tspan dy="0" x="788">Sends prompt of</tspan></text><text font-family="Lato, Arial, sans-serif" font-size="14" text-anchor="middle" x="788" y="373.418"><tspan dy="0" x="788">numeric partition to</tspan></text></g></g><g id="Gets information about dataset &amp; loads partition data"><polyline points="448,360 288,360" fill="none" stroke-width="1" stroke="#adb3b3" opacity="1"></polyline></g><g id="Gets information about dataset &amp; loads partition data"><rect width="133.128" height="52.8" x="301.43600000000004" y="333.6" rx="4" ry="4" fill-opacity="0.8" fill="#e5e7e8" stroke-opacity="1" stroke-width="1" stroke="#cfd2d2" opacity="0.8"></rect><g opacity="1" fill="#434647"><text font-family="Lato, Arial, sans-serif" font-size="14" text-anchor="middle" x="368" y="349.418"><tspan dy="0" x="368">Gets information</tspan></text><text font-family="Lato, Arial, sans-serif" font-size="14" text-anchor="middle" x="368" y="365.418"><tspan dy="0" x="368">about dataset &amp;</tspan></text><text font-family="Lato, Arial, sans-serif" font-size="14" text-anchor="middle" x="368" y="381.418"><tspan dy="0" x="368">loads partition data</tspan></text></g></g><g id="Visualizes  the partition"><polyline points="160,296 160,272 161.38,250.75 165.41000000000003,232.07999999999998 171.91000000000003,215.82 180.70999999999998,201.8 191.63,189.85000000000002 204.49,179.82 219.12,171.52999999999997 235.35000000000002,164.82 252.99,159.51999999999998 271.87,155.45999999999998 302.13,151.35000000000002 323.34000000000003,149.68 356.28,148.37 448,148" fill="none" stroke-width="1" stroke="#adb3b3" opacity="1"></polyline></g><g id="Visualizes  the partition"><rect width="100.914" height="36.8" x="208.42792937552468" y="139.85234039911916" rx="4" ry="4" fill-opacity="0.8" fill="#e5e7e8" stroke-opacity="1" stroke-width="1" stroke="#cfd2d2" opacity="0.8"></rect><g opacity="1" fill="#434647"><text font-family="Lato, Arial, sans-serif" font-size="14" text-anchor="middle" x="258.8849293755247" y="155.67034039911914"><tspan dy="0" x="258.8849293755247">Visualizes  the</tspan></text><text font-family="Lato, Arial, sans-serif" font-size="14" text-anchor="middle" x="258.8849293755247" y="171.67034039911914"><tspan dy="0" x="258.8849293755247">partition</tspan></text></g></g><a href="https://app.icepanel.io/landscapes/z7WU5UqUE7zhZYbwuLK0/versions/latest/model/objects?object=Lcbevd59xc&amp;focus=Lcbevd59xc" id="Customer" target="_blank"><rect width="56" height="56" rx="8" ry="8" fill-opacity="0.8" fill="#f5f6f6" stroke-opacity="1" stroke-width="1" stroke="#adb3b3" opacity="1" x="548" y="32"></rect><rect width="256" height="96" rx="8" ry="8" fill-opacity="0.8" fill="#f5f6f6" stroke-opacity="1" stroke-width="1" stroke="#adb3b3" opacity="1" x="448" y="96"></rect><path d="M576 61.714285714285715C579.7875 61.714285714285715 582.8571428571429 58.644642857142856 582.8571428571429 54.85714285714286C582.8571428571429 51.06964285714285 579.7875 48 576 48C572.2125 48 569.1428571428571 51.06964285714285 569.1428571428571 54.85714285714286C569.1428571428571 58.644642857142856 572.2125 61.714285714285715 576 61.714285714285715ZM580.8 63.42857142857143L579.9053571428572 63.42857142857143C578.7160714285715 63.974999999999994 577.3928571428571 64.28571428571428 576 64.28571428571428C574.6071428571429 64.28571428571428 573.2892857142857 63.974999999999994 572.0946428571428 63.42857142857143L571.2 63.42857142857143C567.225 63.42857142857143 564 66.65357142857142 564 70.62857142857143L564 72.85714285714286C564 74.27678571428571 565.1517857142857 75.42857142857143 566.5714285714286 75.42857142857143L585.4285714285714 75.42857142857143C586.8482142857142 75.42857142857143 588 74.27678571428571 588 72.85714285714286L588 70.62857142857143C588 66.65357142857142 584.775 63.42857142857143 580.8 63.42857142857143Z " fill="#0c0d0d" opacity="1"></path><text font-family="Lato, Arial, sans-serif" font-size="24" text-anchor="middle" fill="#0c0d0d" opacity="1" x="576" y="134.62133333333333"><tspan dy="0" x="576">Customer</tspan></text><g opacity="1"><text font-family="Lato, Arial, sans-serif" font-size="14" text-anchor="middle" fill="#595f61" x="576" y="161.75133333333338"><tspan dy="0" x="576">Domain expert</tspan></text></g><g id="[Actor]" opacity="1"><text font-family="Lato, Arial, sans-serif" font-size="12" text-anchor="middle" fill="#595f61" x="576" y="180.644"><tspan dy="0" x="576">[Actor]</tspan></text></g></a><a href="https://app.icepanel.io/landscapes/z7WU5UqUE7zhZYbwuLK0/versions/latest/model/objects?object=BtZDDWmKtd&amp;focus=BtZDDWmKtd" id="Interval Coding Application" target="_blank"><rect width="256" height="128" rx="8" ry="8" fill-opacity="0.8" fill="#f5f6f6" stroke-opacity="1" stroke-width="1" stroke="#adb3b3" opacity="1" x="448" y="296"></rect><text font-family="Lato, Arial, sans-serif" font-size="24" text-anchor="middle" fill="#0c0d0d" opacity="1" x="576.0000000000001" y="352.288"><tspan dy="0" x="576.0000000000001">Interval Coding</tspan></text><text font-family="Lato, Arial, sans-serif" font-size="24" text-anchor="middle" fill="#0c0d0d" opacity="1" x="576.0000000000001" y="378.288"><tspan dy="0" x="576.0000000000001">Application</tspan></text><g id="[System]" opacity="1"><text font-family="Lato, Arial, sans-serif" font-size="12" text-anchor="middle" fill="#595f61" x="576" y="412.64399999999995"><tspan dy="0" x="576">[System]</tspan></text></g></a><a href="https://app.icepanel.io/landscapes/z7WU5UqUE7zhZYbwuLK0/versions/latest/model/objects?object=0706v4lc2kk6&amp;focus=0706v4lc2kk6" id="D2D.Platform" target="_blank"><rect width="256" height="128" rx="8" ry="8" fill-opacity="0.8" fill="#f5f6f6" stroke-opacity="1" stroke-width="1" stroke="#adb3b3" opacity="1" x="32" y="296"></rect><text font-family="Lato, Arial, sans-serif" font-size="24" text-anchor="middle" fill="#0c0d0d" opacity="1" x="160" y="347.288"><tspan dy="0" x="160">D2D.Platform</tspan></text><g opacity="1"><text font-family="Lato, Arial, sans-serif" font-size="14" text-anchor="middle" fill="#595f61" x="160" y="373.418"><tspan dy="0" x="160">Virtual no-code environment for data</tspan></text><text font-family="Lato, Arial, sans-serif" font-size="14" text-anchor="middle" fill="#595f61" x="160" y="389.418"><tspan dy="0" x="160">analysis</tspan></text></g><g id="[System]" opacity="1"><text font-family="Lato, Arial, sans-serif" font-size="12" text-anchor="middle" fill="#595f61" x="159.99999999999997" y="412.64399999999995"><tspan dy="0" x="159.99999999999997">[System]</tspan></text></g></a><a href="https://app.icepanel.io/landscapes/z7WU5UqUE7zhZYbwuLK0/versions/latest/model/objects?object=mmcj20mlwug&amp;focus=mmcj20mlwug" id="GPT" target="_blank"><rect width="256" height="128" rx="8" ry="8" fill-opacity="0.8" fill="#f5f6f6" stroke-opacity="1" stroke-width="1" stroke="#adb3b3" opacity="1" x="872" y="296"></rect><text font-family="Lato, Arial, sans-serif" font-size="24" text-anchor="middle" fill="#0c0d0d" opacity="1" x="1000" y="365.288"><tspan dy="0" x="1000">GPT</tspan></text><g id="[System]" opacity="1"><text font-family="Lato, Arial, sans-serif" font-size="12" text-anchor="middle" fill="#595f61" x="1000" y="412.64399999999995"><tspan dy="0" x="1000">[System]</tspan></text></g></a><g id="Clarifies dataset description"><polygon points="512,216 504.00000000000006,232 520,232 512,216" fill="#adb3b3" opacity="1" transform="matrix(-1,1.2246467991473532e-16,-1.2246467991473532e-16,-1,1088,511.99999999999994)"></polygon><circle r="4" fill="#adb3b3" opacity="1" cx="576" cy="192"></circle></g><g id="Sends prompt of numeric partition to"><polygon points="864,288 856,304 872,304 864,288" fill="#adb3b3" opacity="1" transform="matrix(6.123233995736766e-17,1,-1,6.123233995736766e-17,1160,-504)"></polygon><circle r="4" fill="#adb3b3" opacity="1" cx="704" cy="360"></circle></g><g id="Gets information about dataset &amp; loads partition data"><polygon points="232,352 224,368 240,368 232,352" fill="#adb3b3" opacity="1" transform="matrix(-1.8369701987210297e-16,-1,1,-1.8369701987210297e-16,-63.99999999999994,592)"></polygon><circle r="4" fill="#adb3b3" opacity="1" cx="448" cy="360"></circle></g><g id="Visualizes  the partition"><polygon points="440.12889220288184,76.1616197194261 432.12889220288184,92.1616197194261 448.12889220288184,92.1616197194261 440.12889220288184,76.1616197194261" fill="#adb3b3" opacity="1" transform="matrix(0.00403398374921715,0.9999918634544538,-0.9999918634544538,0.00403398374921715,522.385527228231,-292.4325458103665)"></polygon><circle r="4" fill="#adb3b3" opacity="1" cx="160" cy="296"></circle></g></g></svg>