<svg xmlns="http://www.w3.org/2000/svg" xmlns:xlink="http://www.w3.org/1999/xlink" version="1.1" width="1128" height="440"><g id="IC Context Diagram"><g id="Uses"><polyline points="568,192 568,280" fill="none" stroke-width="1" stroke="#adb3b3" opacity="1"></polyline></g><g id="Uses"><rect width="42.177" height="20.8" x="546.9115" y="225.6" rx="4" ry="4" fill-opacity="0.8" fill="#e5e7e8" stroke-opacity="1" stroke-width="1" stroke="#cfd2d2" opacity="0.8"></rect><g opacity="1" fill="#434647"><text font-family="Lato, Arial, sans-serif" font-size="14" text-anchor="middle" x="568" y="241.41800000000003"><tspan dy="0" x="568">Uses</tspan></text></g></g><g id="Collects open sources for further processing"><polyline points="440,344 288,344" fill="none" stroke-width="1" stroke="#adb3b3" opacity="1"></polyline></g><g id="Collects open sources for further processing"><rect width="128.718" height="52.8" x="299.641" y="317.6" rx="4" ry="4" fill-opacity="0.8" fill="#e5e7e8" stroke-opacity="1" stroke-width="1" stroke="#cfd2d2" opacity="0.8"></rect><g opacity="1" fill="#434647"><text font-family="Lato, Arial, sans-serif" font-size="14" text-anchor="middle" x="364" y="333.418"><tspan dy="0" x="364">Collects open</tspan></text><text font-family="Lato, Arial, sans-serif" font-size="14" text-anchor="middle" x="364" y="349.418"><tspan dy="0" x="364">sources for further</tspan></text><text font-family="Lato, Arial, sans-serif" font-size="14" text-anchor="middle" x="364" y="365.418"><tspan dy="0" x="364">processing</tspan></text></g></g><g id="Gets account information and loads dataset from"><polyline points="696,344 840,344" fill="none" stroke-width="1" stroke="#adb3b3" opacity="1"></polyline></g><g id="Gets account information and loads dataset from"><rect width="127.738" height="52.8" x="704.131" y="317.6" rx="4" ry="4" fill-opacity="0.8" fill="#e5e7e8" stroke-opacity="1" stroke-width="1" stroke="#cfd2d2" opacity="0.8"></rect><g opacity="1" fill="#434647"><text font-family="Lato, Arial, sans-serif" font-size="14" text-anchor="middle" x="768" y="333.418"><tspan dy="0" x="768">Gets account</tspan></text><text font-family="Lato, Arial, sans-serif" font-size="14" text-anchor="middle" x="768" y="349.418"><tspan dy="0" x="768">information and</tspan></text><text font-family="Lato, Arial, sans-serif" font-size="14" text-anchor="middle" x="768" y="365.418"><tspan dy="0" x="768">loads dataset from</tspan></text></g></g><a href="https://app.icepanel.io/landscapes/z7WU5UqUE7zhZYbwuLK0/versions/latest/model/objects?object=Lcbevd59xc&amp;focus=Lcbevd59xc" id="Domain expert" target="_blank"><rect width="56" height="56" rx="8" ry="8" fill-opacity="0.8" fill="#f5f6f6" stroke-opacity="1" stroke-width="1" stroke="#adb3b3" opacity="1" x="540" y="32"></rect><rect width="256" height="96" rx="8" ry="8" fill-opacity="0.8" fill="#f5f6f6" stroke-opacity="1" stroke-width="1" stroke="#adb3b3" opacity="1" x="440" y="96"></rect><path d="M568 61.714285714285715C571.7875 61.714285714285715 574.8571428571429 58.644642857142856 574.8571428571429 54.85714285714286C574.8571428571429 51.06964285714285 571.7875 48 568 48C564.2125 48 561.1428571428571 51.06964285714285 561.1428571428571 54.85714285714286C561.1428571428571 58.644642857142856 564.2125 61.714285714285715 568 61.714285714285715ZM572.8 63.42857142857143L571.9053571428572 63.42857142857143C570.7160714285715 63.974999999999994 569.3928571428571 64.28571428571428 568 64.28571428571428C566.6071428571429 64.28571428571428 565.2892857142857 63.974999999999994 564.0946428571428 63.42857142857143L563.2 63.42857142857143C559.225 63.42857142857143 556 66.65357142857142 556 70.62857142857143L556 72.85714285714286C556 74.27678571428571 557.1517857142857 75.42857142857143 558.5714285714286 75.42857142857143L577.4285714285714 75.42857142857143C578.8482142857142 75.42857142857143 580 74.27678571428571 580 72.85714285714286L580 70.62857142857143C580 66.65357142857142 576.775 63.42857142857143 572.8 63.42857142857143Z " fill="#0c0d0d" opacity="1"></path><text font-family="Lato, Arial, sans-serif" font-size="24" text-anchor="middle" fill="#0c0d0d" opacity="1" x="568" y="144.288"><tspan dy="0" x="568">Domain expert</tspan></text><g id="[Actor]" opacity="1"><text font-family="Lato, Arial, sans-serif" font-size="12" text-anchor="middle" fill="#595f61" x="568" y="180.644"><tspan dy="0" x="568">[Actor]</tspan></text></g></a><a href="https://app.icepanel.io/landscapes/z7WU5UqUE7zhZYbwuLK0/versions/latest/model/objects?object=BtZDDWmKtd&amp;focus=BtZDDWmKtd" id="Interval Coding Application" target="_blank"><rect width="256" height="128" rx="8" ry="8" fill-opacity="0.8" fill="#f5f6f6" stroke-opacity="1" stroke-width="1" stroke="#adb3b3" opacity="1" x="440" y="280"></rect><text font-family="Lato, Arial, sans-serif" font-size="24" text-anchor="middle" fill="#0c0d0d" opacity="1" x="568" y="336.288"><tspan dy="0" x="568">Interval Coding</tspan></text><text font-family="Lato, Arial, sans-serif" font-size="24" text-anchor="middle" fill="#0c0d0d" opacity="1" x="568.0000000000001" y="362.288"><tspan dy="0" x="568.0000000000001">Application</tspan></text><g id="[System]" opacity="1"><text font-family="Lato, Arial, sans-serif" font-size="12" text-anchor="middle" fill="#595f61" x="568" y="396.64399999999995"><tspan dy="0" x="568">[System]</tspan></text></g></a><a href="https://app.icepanel.io/landscapes/z7WU5UqUE7zhZYbwuLK0/versions/latest/model/objects?object=okcyapah84f&amp;focus=okcyapah84f" id="Search Engines" target="_blank"><rect width="256" height="128" rx="8" ry="8" fill-opacity="0.8" fill="#f5f6f6" stroke-opacity="1" stroke-width="1" stroke="#adb3b3" opacity="1" x="32" y="280"></rect><text font-family="Lato, Arial, sans-serif" font-size="24" text-anchor="middle" fill="#0c0d0d" opacity="1" x="160" y="331.288"><tspan dy="0" x="160">Search Engines</tspan></text><g opacity="1"><text font-family="Lato, Arial, sans-serif" font-size="14" text-anchor="middle" fill="#595f61" x="160" y="365.418"><tspan dy="0" x="160">Google, Yandex and etc.</tspan></text></g><g id="[System]" opacity="1"><text font-family="Lato, Arial, sans-serif" font-size="12" text-anchor="middle" fill="#595f61" x="159.99999999999997" y="396.64399999999995"><tspan dy="0" x="159.99999999999997">[System]</tspan></text></g></a><a href="https://app.icepanel.io/landscapes/z7WU5UqUE7zhZYbwuLK0/versions/latest/model/objects?object=0706v4lc2kk6&amp;focus=0706v4lc2kk6" id="D2D.Platform" target="_blank"><rect width="256" height="128" rx="8" ry="8" fill-opacity="0.8" fill="#f5f6f6" stroke-opacity="1" stroke-width="1" stroke="#adb3b3" opacity="1" x="840" y="280"></rect><text font-family="Lato, Arial, sans-serif" font-size="24" text-anchor="middle" fill="#0c0d0d" opacity="1" x="967.9999999999999" y="349.288"><tspan dy="0" x="967.9999999999999">D2D.Platform</tspan></text><g id="[System]" opacity="1"><text font-family="Lato, Arial, sans-serif" font-size="12" text-anchor="middle" fill="#595f61" x="968" y="396.64399999999995"><tspan dy="0" x="968">[System]</tspan></text></g></a><g id="Uses"><polygon points="504.00000000000006,200 496.00000000000006,216 512,216 504.00000000000006,200" fill="#adb3b3" opacity="1" transform="matrix(-1,1.2246467991473532e-16,-1.2246467991473532e-16,-1,1072,479.99999999999994)"></polygon><circle r="4" fill="#adb3b3" opacity="1" cx="568" cy="192"></circle></g><g id="Collects open sources for further processing"><polygon points="232,336 224,352 240,352 232,336" fill="#adb3b3" opacity="1" transform="matrix(-1.8369701987210297e-16,-1,1,-1.8369701987210297e-16,-47.99999999999994,576)"></polygon><circle r="4" fill="#adb3b3" opacity="1" cx="440" cy="344"></circle></g><g id="Gets account information and loads dataset from"><polygon points="832,272 824,288 840,288 832,272" fill="#adb3b3" opacity="1" transform="matrix(6.123233995736766e-17,1,-1,6.123233995736766e-17,1112,-488)"></polygon><circle r="4" fill="#adb3b3" opacity="1" cx="696" cy="344"></circle></g></g></svg>
